<svg width="160" height="160" viewBox="0 0 160 160" fill="none" xmlns="http://www.w3.org/2000/svg">
<g clip-path="url(#clip0_965_2)">
<path d="M130.556 142.002C116.776 153.252 99.1762 160 80 160C49.1359 160 22.3556 142.521 9.01367 116.923H116.076L130.556 142.002ZM108.877 5.37207C138.788 16.9541 160 45.9993 160 80C160 95.6397 155.51 110.23 147.752 122.556L94.4863 30.2969L108.877 5.37207ZM80 0C81.1764 0 82.3467 0.0268851 83.5107 0.0771484L30.2627 92.3076H0.941406C0.321917 88.2957 0 84.1854 0 80C0 35.8172 35.8172 0 80 0ZM101.864 92.3076H58.6855L80.2744 54.9121L101.864 92.3076Z" fill="white"/>
</g>
<defs>
<clipPath id="clip0_965_2">
<rect width="160" height="160" fill="white"/>
</clipPath>
</defs>
</svg>
