<svg width="897" height="139" viewBox="0 0 897 139" fill="none" xmlns="http://www.w3.org/2000/svg">
<path d="M98.2393 104.832C90.3019 111.312 80.1656 115.2 69.1201 115.2C51.3428 115.2 35.9195 105.132 28.2344 90.3877H89.8994L98.2393 104.832ZM85.7529 26.1357C102.982 32.8071 115.2 49.5358 115.2 69.1201C115.2 78.1282 112.612 86.5305 108.144 93.6299L77.4639 40.4912L85.7529 26.1357ZM69.1201 23.04C69.7975 23.04 70.4714 23.057 71.1416 23.0859L40.4727 76.209H23.583C23.2262 73.8982 23.04 71.5308 23.04 69.1201C23.04 43.6708 43.6708 23.04 69.1201 23.04ZM81.7139 76.209H56.8428L69.2783 54.6699L81.7139 76.209Z" fill="white"/>
<path d="M163.998 94.1201H154.154L172.077 43.211H183.462L201.409 94.1201H191.565L177.968 53.6514H177.57L163.998 94.1201ZM164.321 74.1592H191.168V81.5668H164.321V74.1592ZM202.239 43.211H212.655L225.109 65.7323H225.606L238.06 43.211H248.475L229.956 75.1286V94.1201H220.758V75.1286L202.239 43.211ZM275.058 94.1201H257.806V43.211H275.406C280.46 43.211 284.802 44.2302 288.431 46.2686C292.077 48.2903 294.878 51.1987 296.833 54.9937C298.789 58.7887 299.767 63.3294 299.767 68.6159C299.767 73.9189 298.781 78.4762 296.809 82.2877C294.853 86.0993 292.028 89.0242 288.332 91.0626C284.653 93.1009 280.228 94.1201 275.058 94.1201ZM267.029 86.1407H274.61C278.157 86.1407 281.115 85.4944 283.485 84.2018C285.855 82.8926 287.636 80.9454 288.829 78.3602C290.022 75.7584 290.619 72.5103 290.619 68.6159C290.619 64.7214 290.022 61.4899 288.829 58.9213C287.636 56.336 285.871 54.4054 283.534 53.1294C281.214 51.8367 278.331 51.1904 274.884 51.1904H267.029V86.1407ZM315.132 94.1201H305.289L323.211 43.211H334.596L352.544 94.1201H342.7L329.103 53.6514H328.705L315.132 94.1201ZM315.456 74.1592H342.302V81.5668H315.456V74.1592ZM403.885 43.211V94.1201H395.682L371.694 59.4433H371.271V94.1201H362.049V43.211H370.302L394.265 77.9127H394.712V43.211H403.885ZM443.435 94.1201H433.591L451.514 43.211H462.898L480.846 94.1201H471.002L457.405 53.6514H457.007L443.435 94.1201ZM443.758 74.1592H470.604V81.5668H443.758V74.1592ZM522.443 43.211H531.665V76.471C531.665 80.1168 530.804 83.3235 529.08 86.091C527.373 88.8585 524.97 91.0212 521.871 92.5789C518.772 94.1201 515.151 94.8907 511.008 94.8907C506.849 94.8907 503.22 94.1201 500.121 92.5789C497.022 91.0212 494.619 88.8585 492.912 86.091C491.205 83.3235 490.351 80.1168 490.351 76.471V43.211H499.574V75.7004C499.574 77.8216 500.038 79.7108 500.966 81.368C501.91 83.0252 503.236 84.3261 504.943 85.2707C506.65 86.1987 508.672 86.6627 511.008 86.6627C513.345 86.6627 515.367 86.1987 517.074 85.2707C518.797 84.3261 520.123 83.0252 521.051 81.368C521.979 79.7108 522.443 77.8216 522.443 75.7004V43.211ZM542.252 50.9419V43.211H582.87V50.9419H567.135V94.1201H557.987V50.9419H542.252ZM636.734 68.6656C636.734 74.1509 635.707 78.849 633.652 82.76C631.614 86.6544 628.83 89.6374 625.3 91.7089C621.787 93.7804 617.801 94.8161 613.343 94.8161C608.885 94.8161 604.891 93.7804 601.362 91.7089C597.848 89.6208 595.064 86.6296 593.009 82.7352C590.971 78.8242 589.952 74.1343 589.952 68.6656C589.952 63.1802 590.971 58.4904 593.009 54.596C595.064 50.685 597.848 47.6937 601.362 45.6222C604.891 43.5507 608.885 42.515 613.343 42.515C617.801 42.515 621.787 43.5507 625.3 45.6222C628.83 47.6937 631.614 50.685 633.652 54.596C635.707 58.4904 636.734 63.1802 636.734 68.6656ZM627.462 68.6656C627.462 64.8043 626.858 61.5479 625.648 58.8964C624.455 56.2283 622.797 54.2148 620.676 52.8559C618.555 51.4804 616.111 50.7927 613.343 50.7927C610.576 50.7927 608.131 51.4804 606.01 52.8559C603.889 54.2148 602.223 56.2283 601.014 58.8964C599.82 61.5479 599.224 64.8043 599.224 68.6656C599.224 72.5268 599.82 75.7915 601.014 78.4596C602.223 81.1111 603.889 83.1246 606.01 84.5001C608.131 85.859 610.576 86.5384 613.343 86.5384C616.111 86.5384 618.555 85.859 620.676 84.5001C622.797 83.1246 624.455 81.1111 625.648 78.4596C626.858 75.7915 627.462 72.5268 627.462 68.6656ZM648.253 43.211H659.539L674.652 80.1002H675.249L690.363 43.211H701.648V94.1201H692.799V59.145H692.326L678.257 93.971H671.645L657.575 59.0704H657.103V94.1201H648.253V43.211ZM721.028 94.1201H711.185L729.107 43.211H740.492L758.44 94.1201H748.596L734.999 53.6514H734.601L721.028 94.1201ZM721.352 74.1592H748.198V81.5668H721.352V74.1592ZM759.556 50.9419V43.211H800.173V50.9419H784.438V94.1201H775.291V50.9419H759.556ZM810.804 94.1201V43.211H843.915V50.9419H820.026V64.7629H842.199V72.4937H820.026V86.3893H844.113V94.1201H810.804ZM883.79 57.2061C883.558 55.0351 882.58 53.3448 880.857 52.135C879.15 50.9253 876.929 50.3204 874.195 50.3204C872.273 50.3204 870.624 50.6104 869.248 51.1904C867.873 51.7704 866.82 52.5576 866.091 53.5519C865.362 54.5463 864.989 55.6814 864.973 56.9575C864.973 58.0181 865.213 58.9378 865.694 59.7167C866.191 60.4956 866.862 61.1585 867.707 61.7053C868.552 62.2356 869.489 62.6831 870.516 63.0477C871.543 63.4123 872.579 63.7188 873.623 63.9674L878.396 65.1606C880.318 65.608 882.166 66.2129 883.939 66.9752C885.729 67.7375 887.328 68.6987 888.737 69.8588C890.162 71.0188 891.289 72.4191 892.118 74.0597C892.946 75.7004 893.36 77.6227 893.36 79.8268C893.36 82.8097 892.598 85.4364 891.074 87.7068C889.549 89.9606 887.345 91.7255 884.461 93.0015C881.594 94.261 878.123 94.8907 874.046 94.8907C870.085 94.8907 866.646 94.2776 863.73 93.0512C860.83 91.8249 858.559 90.0351 856.919 87.6819C855.295 85.3287 854.416 82.4617 854.284 79.0811H863.357C863.489 80.8543 864.036 82.3292 864.998 83.5058C865.959 84.6824 867.21 85.5607 868.751 86.1407C870.309 86.7207 872.049 87.0107 873.971 87.0107C875.976 87.0107 877.733 86.7124 879.241 86.1159C880.766 85.5027 881.959 84.6575 882.821 83.5803C883.682 82.4866 884.122 81.2106 884.138 79.7522C884.122 78.4265 883.732 77.3327 882.97 76.471C882.208 75.5927 881.139 74.8635 879.763 74.2835C878.404 73.6869 876.813 73.1566 874.99 72.6926L869.199 71.2011C865.006 70.1239 861.691 68.4916 859.255 66.3041C856.836 64.1 855.626 61.175 855.626 57.5292C855.626 54.5297 856.438 51.903 858.062 49.6492C859.703 47.3954 861.932 45.6471 864.749 44.4042C867.566 43.1447 870.756 42.515 874.319 42.515C877.932 42.515 881.097 43.1447 883.815 44.4042C886.549 45.6471 888.695 47.3789 890.253 49.5995C891.811 51.8036 892.615 54.3391 892.664 57.2061H883.79Z" fill="white"/>
</svg>
