<svg width="240" height="240" viewBox="0 0 240 240" fill="none" xmlns="http://www.w3.org/2000/svg">
<path d="M170.556 182.002C156.776 193.252 139.176 200 120 200C89.1359 200 62.3556 182.521 49.0137 156.923H156.076L170.556 182.002ZM148.878 45.3721C178.789 56.9544 200 85.9997 200 120C200 135.64 195.51 150.23 187.752 162.556L134.486 70.2979L148.878 45.3721ZM120 40C121.177 40 122.347 40.0269 123.512 40.0771L70.2637 132.308H40.9414C40.3219 128.296 40 124.185 40 120C40 75.8172 75.8172 40 120 40ZM141.865 132.308H98.6865L120.275 94.9131L141.865 132.308Z" fill="white"/>
</svg>
